<svg xmlns="http://www.w3.org/2000/svg" viewBox="0 0 249 48"><defs><style>.cls-1{fill:#fff;}</style></defs><title>170421_passion_website_logo_v05</title><g id="Layer_2" data-name="Layer 2"><g id="Layer_4" data-name="Layer 4"><path class="cls-1" d="M43.73,4.27A14.49,14.49,0,0,0,33.42,0H1.92A1.92,1.92,0,0,0,0,1.92V33.42a14.58,14.58,0,1,0,29.15,0V29.15h4.27A14.58,14.58,0,0,0,43.73,4.27ZM2.5,2.5H24.89L2.5,24.89ZM26.65,33.42A12.08,12.08,0,0,1,6,42,12,12,0,0,1,2.5,33.42v-5L26.65,4.26Zm6.77-6.77H29.15V2.5h4.27a12.08,12.08,0,0,1,0,24.16Z"/><path class="cls-1" d="M82.36,15.93a10.3,10.3,0,0,0-1.79-3,8.87,8.87,0,0,0-2.72-2.13A7.35,7.35,0,0,0,74.42,10H63V38h5.24V28.61h6.38A7.4,7.4,0,0,0,78,27.82a8.45,8.45,0,0,0,2.66-2.09,9.73,9.73,0,0,0,1.71-3A10.13,10.13,0,0,0,83,19.31,9.42,9.42,0,0,0,82.36,15.93Zm-5.64,6.68a3,3,0,0,1-2.41,1.23H68.24V14.77h5.84A3.27,3.27,0,0,1,76.59,16a4.81,4.81,0,0,1,.8,1.44,5.76,5.76,0,0,1,.3,1.91A5.18,5.18,0,0,1,76.72,22.62Z"/><path class="cls-1" d="M95.41,10H90.62L80,38h5.57l2.55-7h9.73l2.59,7H106ZM89,27.19l4-11,3.84,11Z"/><path class="cls-1" d="M125.87,26.63a6.55,6.55,0,0,0-1.79-2.22,10,10,0,0,0-2.84-1.55c-1.13-.41-2.38-.8-3.74-1.16-1-.26-2-.51-2.78-.74a10.73,10.73,0,0,1-2-.77,3.72,3.72,0,0,1-1.21-1,2.34,2.34,0,0,1-.42-1.42,2.7,2.7,0,0,1,1.11-2.29,5.65,5.65,0,0,1,3.35-.8A9.92,9.92,0,0,1,118,15a15.41,15.41,0,0,1,2.28.77,10.82,10.82,0,0,1,1.77.91,5.61,5.61,0,0,1,1,.73l2.41-4.33a20.63,20.63,0,0,0-4.35-2.16,15.9,15.9,0,0,0-5.44-.91,13.37,13.37,0,0,0-4,.57,10,10,0,0,0-3.26,1.64,7.5,7.5,0,0,0-2.18,2.71,8.32,8.32,0,0,0-.79,3.72,6.77,6.77,0,0,0,.49,2.74,5.52,5.52,0,0,0,1.48,2,9.74,9.74,0,0,0,2.46,1.51,27,27,0,0,0,3.5,1.17l3,.85a15.86,15.86,0,0,1,2.28.86,4.18,4.18,0,0,1,1.46,1.09,2.22,2.22,0,0,1,.53,1.5c0,1.89-1.5,2.83-4.5,2.83a12.68,12.68,0,0,1-3.16-.38,18.86,18.86,0,0,1-2.8-.95A18,18,0,0,1,108,30.73a7.66,7.66,0,0,1-1.16-.79l2.74,7a2.64,2.64,0,0,0,.25.1,21.73,21.73,0,0,0,6.24.93,17.41,17.41,0,0,0,3.93-.45,10.38,10.38,0,0,0,3.33-1.42,7,7,0,0,0,2.28-2.54,7.66,7.66,0,0,0,.86-3.77A7.31,7.31,0,0,0,125.87,26.63Z"/><path class="cls-1" d="M147.87,26.63a6.62,6.62,0,0,0-1.79-2.22,10,10,0,0,0-2.86-1.55c-1.11-.41-2.36-.8-3.73-1.16-1-.26-2-.51-2.78-.74a11,11,0,0,1-2-.77,3.75,3.75,0,0,1-1.2-1,2.34,2.34,0,0,1-.42-1.42,2.69,2.69,0,0,1,1.1-2.29,5.72,5.72,0,0,1,3.36-.8A9.9,9.9,0,0,1,140,15a15.49,15.49,0,0,1,2.28.77,11.34,11.34,0,0,1,1.77.91,5.49,5.49,0,0,1,1,.73l2.41-4.33a20.57,20.57,0,0,0-4.34-2.16,15.9,15.9,0,0,0-5.44-.91,13.34,13.34,0,0,0-4,.57,10,10,0,0,0-3.26,1.64,7.44,7.44,0,0,0-2.18,2.71,8.32,8.32,0,0,0-.79,3.72,6.88,6.88,0,0,0,.49,2.74,5.6,5.6,0,0,0,1.48,2,9.45,9.45,0,0,0,2.47,1.51,26.69,26.69,0,0,0,3.49,1.17l3,.85a15.48,15.48,0,0,1,2.28.86,4.21,4.21,0,0,1,1.46,1.09,2.22,2.22,0,0,1,.53,1.5c0,1.89-1.5,2.83-4.5,2.83a12.67,12.67,0,0,1-3.16-.38,18.84,18.84,0,0,1-2.8-.95A18.53,18.53,0,0,1,130,30.73c-.33-.2-.6-.38-.83-.53A10.88,10.88,0,0,1,128,35.15a.87.87,0,0,1-.13.22,19.59,19.59,0,0,0,4,1.7,21.69,21.69,0,0,0,6.23.93,17.49,17.49,0,0,0,3.93-.45,10.28,10.28,0,0,0,3.32-1.42,7,7,0,0,0,2.28-2.54,7.66,7.66,0,0,0,.86-3.77A7.41,7.41,0,0,0,147.87,26.63Z"/><path class="cls-1" d="M152,10V38h6V10Z"/><path class="cls-1" d="M186.52,18.94a14.9,14.9,0,0,0-2.73-4.51,13.76,13.76,0,0,0-4.23-3.21A12.15,12.15,0,0,0,174.1,10a12.85,12.85,0,0,0-5.42,1.14,13.64,13.64,0,0,0-4.3,3.09,14.58,14.58,0,0,0-2.85,4.48,13.89,13.89,0,0,0-1,5.29,14.62,14.62,0,0,0,3.72,9.67,13.38,13.38,0,0,0,4.25,3.15A12.55,12.55,0,0,0,174,38a12.8,12.8,0,0,0,5.41-1.14,13.52,13.52,0,0,0,4.29-3.07,14.33,14.33,0,0,0,2.8-4.43,13.88,13.88,0,0,0,1-5.27A14.25,14.25,0,0,0,186.52,18.94Zm-5,8.42a9.4,9.4,0,0,1-1.56,3,7.88,7.88,0,0,1-2.53,2.12,7.89,7.89,0,0,1-6.86,0,7.78,7.78,0,0,1-2.53-2.06,9.27,9.27,0,0,1-1.58-3,11.17,11.17,0,0,1,0-6.82,9.44,9.44,0,0,1,1.54-3,7.75,7.75,0,0,1,2.54-2.1,7.92,7.92,0,0,1,6.83,0,7.66,7.66,0,0,1,2.54,2,9.76,9.76,0,0,1,1.6,3,11,11,0,0,1,0,6.82Z"/><path class="cls-1" d="M209.62,10V28.38L195.17,10H191V38h5.38V20.05L210.63,38H215V10Z"/><path class="cls-1" d="M247.16,10H222.84A1.83,1.83,0,0,0,221,11.83V36.17A1.83,1.83,0,0,0,222.84,38h24.32A1.83,1.83,0,0,0,249,36.17V11.83A1.83,1.83,0,0,0,247.16,10ZM227,34.93h-2.85V32.1H227Zm5.3,0h-2.85V23.78h2.85Zm0-12.7h-2.85V19.4h2.85Zm13.08,9.34a5.72,5.72,0,0,1-1.15,1.84,5.39,5.39,0,0,1-1.83,1.27,6.68,6.68,0,0,1-4.89,0,5.47,5.47,0,0,1-1.84-1.27,5.65,5.65,0,0,1-1.16-1.84,6,6,0,0,1-.4-2.19,6.09,6.09,0,0,1,.4-2.21,5.65,5.65,0,0,1,1.16-1.84,5.47,5.47,0,0,1,1.84-1.27,6.17,6.17,0,0,1,2.45-.46,6,6,0,0,1,2.43.46,5.51,5.51,0,0,1,1.83,1.27,5.65,5.65,0,0,1,1.16,1.84,6.09,6.09,0,0,1,.4,2.21A6,6,0,0,1,245.41,31.57ZM242.06,27a2.62,2.62,0,0,0-.92-.69A2.68,2.68,0,0,0,240,26a2.63,2.63,0,0,0-1.15.26,2.88,2.88,0,0,0-.92.7A3.25,3.25,0,0,0,237.3,28a4.1,4.1,0,0,0,0,2.69,3.29,3.29,0,0,0,.61,1.06,2.85,2.85,0,0,0,.92.69,2.8,2.8,0,0,0,1.15.24,2.72,2.72,0,0,0,2.07-.94,3.26,3.26,0,0,0,.62-1.06,4.05,4.05,0,0,0,.23-1.36,3.94,3.94,0,0,0-.23-1.34A3.14,3.14,0,0,0,242.06,27Z"/></g></g></svg>